<?xml version="1.0" standalone="no"?><!DOCTYPE svg PUBLIC "-//W3C//DTD SVG 1.1//EN" "http://www.w3.org/Graphics/SVG/1.1/DTD/svg11.dtd"><svg t="1617265392772" class="icon" viewBox="0 0 1024 1024" version="1.1" xmlns="http://www.w3.org/2000/svg" p-id="10153" xmlns:xlink="http://www.w3.org/1999/xlink" width="48" height="48"><defs><style type="text/css"></style></defs><path d="M779.6 846.97c0 30.2-26.34 54.69-58.83 54.69-32.49 0-58.83-24.48-58.83-54.69 0-30.2 26.34-54.68 58.83-54.68 32.49 0 58.83 24.48 58.83 54.68z" fill="#FFE66F" p-id="10154"></path><path d="M367.54 509.92a179.94 154.46 0 1 0 359.88 0 179.94 154.46 0 1 0-359.88 0Z" fill="#FFE66F" p-id="10155"></path><path d="M565.29 915.92c-18.04 2.26-36.19 3.4-54.37 3.43-166.39-0.12-316.18-100.88-379.01-254.96h235.63c80.71 75.41 206.05 75.41 286.77 0h73.11c11.06-0.08 19.98-9.08 19.98-20.14s-8.92-20.05-19.98-20.13h-40.28a209.579 209.579 0 0 0 34.84-114.19c-0.09-11.27-1.1-22.52-3.02-33.63H824.9c11.12 0 20.13-9.02 20.13-20.15 0-11.12-9.02-20.13-20.13-20.13H708.28a215.576 215.576 0 0 0-20.13-40.28h215.68a403.103 403.103 0 0 1 16.51 114.19c0 21.37-1.61 42.72-4.83 63.84-0.87 5.29 0.41 10.71 3.54 15.05 3.13 4.35 7.88 7.26 13.17 8.1 5.29 0.81 10.68-0.52 14.99-3.7a20.14 20.14 0 0 0 7.97-13.22c29.62-190.88-66.31-379.27-238.09-467.61-171.78-88.33-380.82-56.76-518.85 78.37C60.22 325.9 24.22 534.22 108.88 707.84c84.68 173.61 270.99 273.52 462.46 247.95 11.12-1.44 18.97-11.63 17.52-22.75-1.45-11.12-11.63-18.97-22.76-17.52l-0.81 0.4z m-463.79-406c0-38.66 5.56-77.12 16.52-114.19H333.7a214.968 214.968 0 0 0-20.13 40.28h-61.43c-11.12 0-20.13 9.01-20.13 20.13 0 11.13 9.01 20.15 20.13 20.15h50.76a207.123 207.123 0 0 0-3.02 33.63c-0.01 40.54 11.74 80.2 33.83 114.19h-215.7a403.103 403.103 0 0 1-16.51-114.19z m238.64 0c0-94.32 76.46-170.77 170.78-170.77 94.32 0 170.77 76.46 170.77 170.77 0 94.32-76.46 170.77-170.77 170.77-94.22-0.21-170.55-76.54-170.78-170.77zM510.92 100.5c166.39 0.12 316.19 100.88 379.01 254.97H654.31c-80.72-75.42-206.06-75.42-286.77 0H131.91c62.83-154.09 212.62-254.85 379.01-254.97z m0 0" fill="#5F55AC" p-id="10156"></path><path d="M178.23 436.01h-21.75c-11.13 0-20.14 9.01-20.14 20.13 0 11.13 9.01 20.15 20.14 20.15h21.75c11.12 0 20.14-9.02 20.14-20.15 0-11.11-9.02-20.13-20.14-20.13z m411.43 44.91l-93.03-53.77a33.637 33.637 0 0 0-33.51 0.03 33.618 33.618 0 0 0-16.84 28.96v107.55a33.435 33.435 0 0 0 16.74 29.14 33.46 33.46 0 0 0 33.61-0.14l93.03-53.77a33.245 33.245 0 0 0 17.01-29c0-12.03-6.5-23.12-17.01-29z m-103.1 71.09v-84.18l72.9 42.09-72.9 42.09z m392.5 90.02c-11.01 0-21.55-4.37-29.33-12.15a41.479 41.479 0 0 1-12.15-29.33c-0.09-11.06-9.08-19.98-20.13-19.98-11.06 0-20.06 8.92-20.14 19.98v178.43a99.005 99.005 0 0 0-60.42-20.13c-55.62 0-100.7 45.08-100.7 100.69s45.08 100.69 100.7 100.69c55.61 0 100.69-45.08 100.69-100.69v-188.5a80.49 80.49 0 0 0 41.48 11.67c22.02 0.53 39.75 18.26 40.28 40.28 0.08 11.06 9.08 19.98 20.14 19.98s20.05-8.93 20.13-19.98c-0.43-44.37-36.18-80.3-80.55-80.96zM736.88 919.34c-33.37 0-60.42-27.05-60.42-60.42s27.04-60.42 60.42-60.42c33.36 0 60.42 27.05 60.42 60.42 0 16.02-6.37 31.39-17.7 42.72a60.383 60.383 0 0 1-42.72 17.7z m0 0" fill="#5F55AC" p-id="10157"></path></svg>