<?xml version="1.0" encoding="UTF-8"?>
<svg width="16px" height="16px" viewBox="0 0 16 16" version="1.1" xmlns="http://www.w3.org/2000/svg" xmlns:xlink="http://www.w3.org/1999/xlink">
    <title>icon/normal全屏</title>
    <g id="icon/normal全屏" stroke="none" stroke-width="1" fill="none" fill-rule="evenodd">
        <g id="zoom-in" transform="translate(1.000000, 1.000000)" fill="#536076">
            <path d="M11.5020869,0 C12.8253572,0 13.9100252,1.03308004 13.9946814,2.33396327 L14,2.49791312 L14,7 L13,7 L13,2.49791312 C13,1.7214842 12.4046603,1.0796974 11.6461202,1.00687968 L11.5020869,1 L7,1 L7,0 L11.5020869,0 Z" id="Stroke-1"></path>
            <path d="M1,7 L1,11.5020869 C1,12.2785158 1.59533967,12.9203026 2.35387984,12.9931203 L2.49791312,13 L7,13 L7,14 L2.49791312,14 C1.17464282,14 0.0899747647,12.96692 0.00531855266,11.6660367 L0,11.5020869 L0,7 L1,7 Z" id="Stroke-3"></path>
            <path d="M9.13992821,4.15308747 C9.33152271,3.95422531 9.64805037,3.94833371 9.84691253,4.13992821 C10.0236789,4.31023443 10.0479747,4.57925328 9.91662852,4.77659995 L9.86007179,4.84691253 L5.49093694,9.38177958 C5.29934244,9.58064174 4.98281478,9.58653334 4.78395262,9.39493884 C4.60718626,9.22463262 4.58289046,8.95561378 4.71423663,8.75826711 L4.77079336,8.68795452 L9.13992821,4.15308747 Z" id="Stroke-5"></path>
        </g>
    </g>
</svg>